<svg width="32" height="32" viewBox="0 0 32 32" fill="none" xmlns="http://www.w3.org/2000/svg">
<path d="M17.2533 16L23.7333 9.52C23.879 9.34995 23.9551 9.13122 23.9464 8.90751C23.9378 8.6838 23.845 8.47158 23.6867 8.31328C23.5284 8.15497 23.3162 8.06223 23.0925 8.05359C22.8688 8.04495 22.6501 8.12104 22.48 8.26667L16 14.7467L9.52001 8.25778C9.34996 8.11215 9.13123 8.03606 8.90752 8.0447C8.68381 8.05334 8.47159 8.14608 8.31329 8.30439C8.15498 8.46269 8.06224 8.67491 8.0536 8.89862C8.04496 9.12233 8.12105 9.34107 8.26668 9.51111L14.7467 16L8.25779 22.48C8.16474 22.5597 8.08916 22.6577 8.03581 22.768C7.98246 22.8783 7.95247 22.9984 7.94774 23.1208C7.94302 23.2433 7.96364 23.3653 8.00833 23.4794C8.05302 23.5935 8.12081 23.6971 8.20743 23.7837C8.29406 23.8703 8.39766 23.9381 8.51172 23.9828C8.62579 24.0275 8.74786 24.0481 8.87028 24.0434C8.9927 24.0386 9.11282 24.0087 9.22309 23.9553C9.33337 23.902 9.43144 23.8264 9.51112 23.7333L16 17.2533L22.48 23.7333C22.6501 23.879 22.8688 23.9551 23.0925 23.9464C23.3162 23.9378 23.5284 23.845 23.6867 23.6867C23.845 23.5284 23.9378 23.3162 23.9464 23.0925C23.9551 22.8688 23.879 22.65 23.7333 22.48L17.2533 16Z" fill="black"/>
</svg>
