<svg width="14" height="12" viewBox="0 0 14 12" fill="none" xmlns="http://www.w3.org/2000/svg">
<path d="M4.00356e-07 1.25C4.00356e-07 0.56 0.56 0 1.249 0H1.749C2.439 0 2.997 0.56 2.997 1.25V10.745C2.997 11.435 2.438 11.995 1.749 11.995H1.249C1.08485 11.9949 0.922329 11.9624 0.770722 11.8995C0.619115 11.8365 0.48139 11.7443 0.36541 11.6282C0.249429 11.512 0.157465 11.3741 0.0947682 11.2224C0.0320712 11.0707 -0.000130974 10.9082 4.00356e-07 10.744V1.249V1.25ZM1.249 1C1.1827 1 1.11911 1.02634 1.07222 1.07322C1.02534 1.12011 0.999 1.1837 0.999 1.25V10.745C0.999 10.883 1.111 10.995 1.249 10.995H1.749C1.8153 10.995 1.87889 10.9687 1.92578 10.9218C1.97266 10.8749 1.999 10.8113 1.999 10.745V1.249C1.999 1.1827 1.97266 1.11911 1.92578 1.07222C1.87889 1.02534 1.8153 0.999 1.749 0.999H1.249V1ZM3.997 1.25C3.997 0.56 4.556 0 5.246 0H5.746C6.435 0 6.994 0.56 6.994 1.25V10.745C6.994 11.435 6.434 11.995 5.745 11.995H5.245C4.91383 11.9945 4.5964 11.8625 4.36241 11.6282C4.12842 11.3938 3.997 11.0762 3.997 10.745V1.249V1.25ZM5.246 1C5.1797 1 5.11611 1.02634 5.06922 1.07322C5.02234 1.12011 4.996 1.1837 4.996 1.25V10.745C4.996 10.883 5.108 10.995 5.246 10.995H5.746C5.81213 10.9947 5.87546 10.9683 5.92213 10.9214C5.9688 10.8746 5.995 10.8111 5.995 10.745V1.249C5.995 1.1827 5.96866 1.11911 5.92178 1.07222C5.87489 1.02534 5.8113 0.999 5.745 0.999H5.245L5.246 1ZM10.972 2.777C10.8521 2.47913 10.6221 2.23888 10.3298 2.10611C10.0374 1.97334 9.70518 1.95826 9.402 2.064L8.819 2.268C8.65974 2.32391 8.51346 2.41149 8.38897 2.52547C8.26448 2.63944 8.16436 2.77745 8.09465 2.93117C8.02494 3.08488 7.98709 3.25112 7.98337 3.41987C7.97964 3.58861 8.01014 3.75636 8.073 3.913L11.01 11.217C11.259 11.837 11.95 12.15 12.581 11.93L13.163 11.726C13.3224 11.6701 13.4688 11.5825 13.5933 11.4684C13.7179 11.3544 13.8181 11.2163 13.8878 11.0625C13.9575 10.9086 13.9954 10.7422 13.999 10.5734C14.0026 10.4045 13.972 10.2367 13.909 10.08L10.972 2.777V2.777ZM9.732 3.007C9.79256 2.98622 9.85878 2.98947 9.91702 3.01608C9.97525 3.04268 10.0211 3.09062 10.045 3.15L12.982 10.453C12.9947 10.4844 13.001 10.518 13.0003 10.5519C12.9997 10.5857 12.9922 10.6191 12.9782 10.6499C12.9643 10.6808 12.9442 10.7085 12.9193 10.7314C12.8943 10.7542 12.865 10.7718 12.833 10.783L12.251 10.986C12.1904 11.0071 12.1241 11.0042 12.0656 10.9777C12.0072 10.9513 11.9611 10.9034 11.937 10.844L9 3.54C8.98742 3.50868 8.98132 3.47515 8.98205 3.44141C8.98278 3.40767 8.99033 3.37443 9.00425 3.34369C9.01818 3.31295 9.03818 3.28534 9.06306 3.26254C9.08793 3.23973 9.11717 3.2222 9.149 3.211L9.731 3.007H9.732Z" fill="black"/>
</svg>
