<svg width="7" height="9" viewBox="0 0 7 9" fill="none" xmlns="http://www.w3.org/2000/svg">
<path d="M3.5 5.40005C4.46511 5.40005 5.24998 4.59274 5.24998 3.60003C5.24998 2.60732 4.46511 1.80002 3.5 1.80002C2.53488 1.80002 1.75002 2.60732 1.75002 3.60003C1.75002 4.59274 2.53488 5.40005 3.5 5.40005ZM3.5 2.70003C3.98255 2.70003 4.37499 3.10368 4.37499 3.60003C4.37499 4.09639 3.98255 4.50004 3.5 4.50004C3.01744 4.50004 2.62501 4.09639 2.62501 3.60003C2.62501 3.10368 3.01744 2.70003 3.5 2.70003Z" fill="black"/>
<path d="M3.24625 8.91637C3.3203 8.97076 3.40901 9 3.5 9C3.59099 9 3.6797 8.97076 3.75375 8.91637C3.88675 8.81962 7.01265 6.49805 6.99996 3.60003C6.99996 1.61506 5.42979 0 3.5 0C1.57021 0 3.85161e-05 1.61506 3.85161e-05 3.59778C-0.0126488 6.49805 3.11325 8.81962 3.24625 8.91637ZM3.5 0.900007C4.94767 0.900007 6.12497 2.11097 6.12497 3.60228C6.13416 5.59939 4.20524 7.39266 3.5 7.98081C2.7952 7.39221 0.865841 5.59849 0.875029 3.60003C0.875029 2.11097 2.05233 0.900007 3.5 0.900007Z" fill="black"/>
</svg>
