<svg width="16" height="16" viewBox="0 0 16 16" fill="none" xmlns="http://www.w3.org/2000/svg">
<path d="M7.36 11.52C5.056 11.52 3.2 9.66401 3.2 7.36001C3.2 5.05601 5.056 3.20001 7.36 3.20001C9.664 3.20001 11.52 5.05601 11.52 7.36001C11.52 9.66401 9.664 11.52 7.36 11.52ZM7.36 3.84001C5.408 3.84001 3.84 5.40801 3.84 7.36001C3.84 9.31201 5.408 10.88 7.36 10.88C9.312 10.88 10.88 9.31201 10.88 7.36001C10.88 5.40801 9.312 3.84001 7.36 3.84001Z" fill="black"/>
<path d="M10.4582 10.0054L13.3318 12.879L12.8794 13.3315L10.0058 10.4579L10.4582 10.0054Z" fill="black"/>
</svg>
