<svg width="17" height="17" viewBox="0 0 17 17" fill="none" xmlns="http://www.w3.org/2000/svg">
<path d="M4.95833 10.6354C4.95833 11.5493 5.33147 12.4258 5.99566 13.072C6.65986 13.7183 7.56069 14.0813 8.5 14.0813C9.43931 14.0813 10.3401 13.7183 11.0043 13.072C11.6685 12.4258 12.0417 11.5493 12.0417 10.6354C12.0417 9.44583 10.8658 7.16806 8.5 3.98263C6.13417 7.16806 4.95833 9.44583 4.95833 10.6354ZM8.5 1.67591C11.8058 5.87307 13.4583 8.85933 13.4583 10.6354C13.4583 11.9149 12.9359 13.1419 12.0061 14.0467C11.0762 14.9514 9.81503 15.4597 8.5 15.4597C7.18497 15.4597 5.9238 14.9514 4.99393 14.0467C4.06406 13.1419 3.54167 11.9149 3.54167 10.6354C3.54167 8.85933 5.19421 5.87307 8.5 1.67591Z" fill="#F37E11"/>
</svg>
